# xmcd CD database file generated by Grip 2.96
# 
# Track frame offsets:
#       150
#       16244
#       29758
#       50986
#       62630
#       75041
#       87757
#       103097
#       118350
#       130112
#       143436
#       160932
# 
# Disc length: 2393 seconds
# 
# Revision: 2
# Processed by: cddbd v1.4PL0 Copyright (c) Steve Scherf et al.
# Submitted via: Grip 2.96, revision edited manually
# 
DISCID=9909570c
DTITLE=Bjørn Berge - Bjørn Berge
DYEAR=1900
DGENRE=
TTITLE0=Don't the road look rough and rocky
TTITLE1=Death letter
TTITLE2=Midnight on the stormy deep
TTITLE3=Shake for me
TTITLE4=Stones in my passway
TTITLE5=Angel band
TTITLE6=Goin' to Brownsville
TTITLE7=Left her behind
TTITLE8=Just rode in your town
TTITLE9=I wish you would
TTITLE10=Hellhound on my trail
TTITLE11=Saddle my pony
EXTD=
EXTT0=
EXTT1=
EXTT2=
EXTT3=
EXTT4=
EXTT5=
EXTT6=
EXTT7=
EXTT8=
EXTT9=
EXTT10=
EXTT11=
PLAYORDER=
